# xmcd
# Copyright (C) 1995-1998 Ti Kan
#
# Track frame offsets:
#       150
#       20240
#       37054
#       54693
#       77510
#       96295
#       112312
#       135972
#       154283
#       171857
#
# Disc length: 2528 seconds
#
# Revision: 0
# Processed by: cddbd v1.5.2PL0 Copyright (c) Steve Scherf et al.
# Submitted via: CD-Import v1.0
#
DISCID=8809de0a
DTITLE=Yeah Yeah Yeahs - It's Blitz!
DYEAR=2009
DGENRE=
TTITLE0=Zero
TTITLE1=Heads Will Roll
TTITLE2=Soft Shock
TTITLE3=Skeletons
TTITLE4=Dull Life
TTITLE5=Shame And Fortune
TTITLE6=Runaway
TTITLE7=Dragon Queen
TTITLE8=Hysteric
TTITLE9=Little Shadow
EXTD=
EXTT0=
EXTT1=
EXTT2=
EXTT3=
EXTT4=
EXTT5=
EXTT6=
EXTT7=
EXTT8=
EXTT9=
PLAYORDER=
